<svg width="48" height="48" viewBox="0 0 48 48" fill="none" xmlns="http://www.w3.org/2000/svg">
<rect x="0.5" y="0.5" width="47" height="47" rx="23.5" stroke="#212121"/>
<g clip-path="url(#clip0_569_17)">
<path d="M23.514 18.256C23.514 19.7455 24.1057 21.1739 25.1589 22.2271C26.2121 23.2803 27.6406 23.872 29.13 23.872C30.6195 23.872 32.0479 23.2803 33.1011 22.2271C34.1543 21.1739 34.746 19.7455 34.746 18.256C34.746 16.7666 34.1543 15.3381 33.1011 14.2849C32.0479 13.2317 30.6195 12.64 29.13 12.64C27.6406 12.64 26.2121 13.2317 25.1589 14.2849C24.1057 15.3381 23.514 16.7666 23.514 18.256Z" stroke="black" stroke-linecap="round" stroke-linejoin="round"/>
<path d="M30.534 20.688C30.1072 20.9346 29.6229 21.0645 29.13 21.0645C28.637 21.0645 28.1528 20.9346 27.726 20.688" stroke="black" stroke-linecap="round" stroke-linejoin="round"/>
<path d="M29.13 12.64C29.5024 12.64 29.8595 12.7879 30.1228 13.0512C30.3861 13.3145 30.534 13.6717 30.534 14.044C30.534 14.4164 30.3861 14.7735 30.1228 15.0368C29.8595 15.3001 29.5024 15.448 29.13 15.448" stroke="black" stroke-linecap="round" stroke-linejoin="round"/>
<path d="M31.587 16.852C31.6801 16.852 31.7694 16.889 31.8352 16.9548C31.901 17.0206 31.938 17.1099 31.938 17.203" stroke="black" stroke-linecap="round" stroke-linejoin="round"/>
<path d="M31.236 17.2C31.236 17.1069 31.273 17.0176 31.3388 16.9518C31.4046 16.886 31.4939 16.849 31.587 16.849" stroke="black" stroke-linecap="round" stroke-linejoin="round"/>
<path d="M31.587 17.554C31.4939 17.554 31.4046 17.517 31.3388 17.4512C31.273 17.3854 31.236 17.2961 31.236 17.203" stroke="black" stroke-linecap="round" stroke-linejoin="round"/>
<path d="M31.938 17.2C31.938 17.2931 31.901 17.3824 31.8352 17.4482C31.7694 17.514 31.6801 17.551 31.587 17.551" stroke="black" stroke-linecap="round" stroke-linejoin="round"/>
<path d="M26.673 16.852C26.7661 16.852 26.8554 16.889 26.9212 16.9548C26.987 17.0206 27.024 17.1099 27.024 17.203" stroke="black" stroke-linecap="round" stroke-linejoin="round"/>
<path d="M26.322 17.2C26.322 17.1069 26.359 17.0176 26.4248 16.9518C26.4906 16.886 26.5799 16.849 26.673 16.849" stroke="black" stroke-linecap="round" stroke-linejoin="round"/>
<path d="M26.673 17.554C26.5799 17.554 26.4906 17.517 26.4248 17.4512C26.359 17.3854 26.322 17.2961 26.322 17.203" stroke="black" stroke-linecap="round" stroke-linejoin="round"/>
<path d="M27.024 17.2C27.024 17.2931 26.987 17.3824 26.9212 17.4482C26.8554 17.514 26.7661 17.551 26.673 17.551" stroke="black" stroke-linecap="round" stroke-linejoin="round"/>
<path d="M21.664 23.306C21.3698 20.3473 20.6203 17.4518 19.442 14.722C19.2111 14.1812 18.8264 13.7203 18.3357 13.3963C17.845 13.0724 17.27 12.8998 16.682 12.9H14.746C14.5488 12.901 14.3538 12.9409 14.1721 13.0174C13.9904 13.0939 13.8255 13.2054 13.687 13.3457C13.5484 13.4859 13.4388 13.6521 13.3645 13.8347C13.2902 14.0174 13.2527 14.2128 13.254 14.41V14.493L14.454 32.564C14.5048 33.3245 14.8432 34.0371 15.4004 34.5572C15.9576 35.0772 16.6918 35.3657 17.454 35.364H31.076C31.7338 35.3644 32.3734 35.1486 32.8965 34.7498C33.4196 34.351 33.7971 33.7914 33.971 33.157L34.384 31.639C34.5159 31.154 34.5238 30.6436 34.407 30.1547C34.2902 29.6658 34.0524 29.2141 33.7155 28.8411C33.3786 28.4681 32.9534 28.1857 32.4789 28.0199C32.0045 27.854 31.4959 27.81 31 27.892L21.626 29.369C21.8521 27.355 21.8648 25.3227 21.664 23.306Z" stroke="black" stroke-linecap="round" stroke-linejoin="round"/>
</g>
<defs>
<clipPath id="clip0_569_17">
<rect width="24" height="24" fill="white" transform="translate(12 12)"/>
</clipPath>
</defs>
</svg>
