<svg width="48" height="48" viewBox="0 0 48 48" fill="none" xmlns="http://www.w3.org/2000/svg">
<rect x="0.5" y="0.5" width="47" height="47" rx="23.5" stroke="#212121"/>
<g clip-path="url(#clip0_569_36)">
<path d="M35.5 34.5C35.5 34.7652 35.3946 35.0196 35.2071 35.2071C35.0196 35.3946 34.7652 35.5 34.5 35.5H18.5C18.2348 35.5 17.9804 35.3946 17.7929 35.2071C17.6054 35.0196 17.5 34.7652 17.5 34.5V24.44C17.4995 24.1462 17.5638 23.8559 17.6882 23.5897C17.8127 23.3235 17.9942 23.088 18.22 22.9L23.5 18.5V15.5C23.5 14.9696 23.7107 14.4609 24.0858 14.0858C24.4609 13.7107 24.9696 13.5 25.5 13.5H33.5C34.0304 13.5 34.5391 13.7107 34.9142 14.0858C35.2893 14.4609 35.5 14.9696 35.5 15.5V34.5Z" stroke="black" stroke-linecap="round" stroke-linejoin="round"/>
<path d="M26.5 15.5H32.5C32.5 15.5 33.5 15.5 33.5 16.5V17.5C33.5 17.5 33.5 18.5 32.5 18.5H26.5C26.5 18.5 25.5 18.5 25.5 17.5V16.5C25.5 16.5 25.5 15.5 26.5 15.5Z" stroke="black" stroke-linecap="round" stroke-linejoin="round"/>
<path d="M23.5 23.5L31.5 31.5" stroke="black" stroke-linecap="round" stroke-linejoin="round"/>
<path d="M31.5 23.5L23.5 31.5" stroke="black" stroke-linecap="round" stroke-linejoin="round"/>
<path d="M23.43 18.56L21.92 17.46C21.8334 17.3951 21.7282 17.36 21.62 17.36C21.5118 17.36 21.4065 17.3951 21.32 17.46L17.94 20.38C17.8582 20.4586 17.8049 20.5622 17.7886 20.6745C17.7723 20.7868 17.7939 20.9014 17.85 21L18.85 22.36" stroke="black" stroke-linecap="round" stroke-linejoin="round"/>
<path d="M20.59 18.12C18.12 14.89 16.58 12.53 13 12.5C12.9344 12.4992 12.8694 12.5121 12.8091 12.5379C12.7488 12.5638 12.6946 12.6019 12.65 12.65C12.602 12.6946 12.5638 12.7488 12.538 12.8091C12.5121 12.8694 12.4992 12.9344 12.5 13V14.5C12.5 14.6326 12.5527 14.7598 12.6464 14.8535C12.7402 14.9473 12.8674 15 13 15C16 15 16.78 17.23 18.67 19.76" stroke="black" stroke-linecap="round" stroke-linejoin="round"/>
</g>
<defs>
<clipPath id="clip0_569_36">
<rect width="24" height="24" fill="white" transform="translate(12 12)"/>
</clipPath>
</defs>
</svg>
