<svg width="40" height="40" viewBox="0 0 40 40" fill="none" xmlns="http://www.w3.org/2000/svg">
<rect width="40" height="40" rx="20" fill="#4743F9"/>
<g clip-path="url(#clip0_569_47)">
<path d="M24 17.5L19.93 22.926C19.8641 23.0138 19.7802 23.0865 19.6838 23.139C19.5874 23.1916 19.4809 23.2229 19.3714 23.2308C19.2619 23.2386 19.152 23.2229 19.0491 23.1847C18.9462 23.1464 18.8528 23.0865 18.775 23.009L16.333 20.566" stroke="white" stroke-linecap="round" stroke-linejoin="round"/>
<path d="M18.7 9.12101C18.856 8.92608 19.0538 8.76872 19.2788 8.66059C19.5039 8.55245 19.7503 8.49631 20 8.49631C20.2497 8.49631 20.4961 8.55245 20.7211 8.66059C20.9462 8.76872 21.144 8.92608 21.3 9.12101L22.845 11.044C23.0203 11.2621 23.2476 11.4324 23.5061 11.5394C23.7646 11.6464 24.0459 11.6865 24.324 11.656L26.776 11.389C27.0236 11.3626 27.2739 11.392 27.5086 11.4751C27.7433 11.5581 27.9565 11.6926 28.1324 11.8688C28.3083 12.045 28.4425 12.2584 28.5251 12.4932C28.6078 12.7281 28.6368 12.9785 28.61 13.226L28.343 15.677C28.3128 15.9552 28.3531 16.2365 28.4602 16.495C28.5673 16.7535 28.7378 16.9808 28.956 17.156L30.878 18.7C31.0728 18.8561 31.23 19.054 31.338 19.279C31.446 19.504 31.5021 19.7504 31.5021 20C31.5021 20.2496 31.446 20.496 31.338 20.721C31.23 20.946 31.0728 21.1439 30.878 21.3L28.956 22.845C28.7378 23.02 28.5673 23.2472 28.4602 23.5055C28.353 23.7638 28.3127 24.045 28.343 24.323L28.61 26.775C28.6371 27.0227 28.6082 27.2734 28.5255 27.5084C28.4428 27.7435 28.3084 27.957 28.1322 28.1332C27.956 28.3094 27.7425 28.4438 27.5074 28.5265C27.2723 28.6092 27.0217 28.6381 26.774 28.611L24.322 28.344C24.0438 28.314 23.7626 28.3543 23.5041 28.4615C23.2457 28.5686 23.0183 28.739 22.843 28.957L21.3 30.877C21.144 31.0719 20.9462 31.2293 20.7211 31.3374C20.4961 31.4456 20.2497 31.5017 20 31.5017C19.7503 31.5017 19.5039 31.4456 19.2788 31.3374C19.0538 31.2293 18.856 31.0719 18.7 30.877L17.157 28.955C16.9817 28.737 16.7543 28.5666 16.4958 28.4595C16.2374 28.3523 15.9561 28.3119 15.678 28.342L13.226 28.609C12.9783 28.6361 12.7277 28.6072 12.4926 28.5245C12.2575 28.4418 12.044 28.3074 11.8678 28.1312C11.6916 27.955 11.5572 27.7415 11.4745 27.5064C11.3918 27.2714 11.3629 27.0207 11.39 26.773L11.657 24.321C11.6873 24.043 11.6469 23.7618 11.5398 23.5035C11.4327 23.2452 11.2621 23.018 11.044 22.843L9.12199 21.3C8.92723 21.1439 8.77003 20.946 8.662 20.721C8.55398 20.496 8.49789 20.2496 8.49789 20C8.49789 19.7504 8.55398 19.504 8.662 19.279C8.77003 19.054 8.92723 18.8561 9.12199 18.7L11.044 17.156C11.2622 16.9808 11.4327 16.7535 11.5398 16.495C11.6469 16.2365 11.6872 15.9552 11.657 15.677L11.39 13.226C11.3631 12.9783 11.3922 12.7277 11.4749 12.4927C11.5577 12.2577 11.6921 12.0442 11.8682 11.868C12.0444 11.6917 12.2578 11.5572 12.4927 11.4743C12.7277 11.3915 12.9783 11.3623 13.226 11.389L15.678 11.656C15.9561 11.6865 16.2374 11.6464 16.4959 11.5394C16.7544 11.4324 16.9817 11.2621 17.157 11.044L18.7 9.12101Z" stroke="white" stroke-linecap="round" stroke-linejoin="round"/>
</g>
<defs>
<clipPath id="clip0_569_47">
<rect width="24" height="24" fill="white" transform="translate(8 8)"/>
</clipPath>
</defs>
</svg>
